<svg xmlns="http://www.w3.org/2000/svg" width="1200" height="800" viewBox="0 0 1200 800">
  <defs>
    <linearGradient id="sky" x1="0" y1="0" x2="0" y2="1">
      <stop offset="0%" stop-color="#070b14"/>
      <stop offset="60%" stop-color="#0b1220"/>
      <stop offset="100%" stop-color="#0f172a"/>
    </linearGradient>
  </defs>
  <rect width="1200" height="800" fill="url(#sky)"/>
  <rect x="90" y="520" width="260" height="160" rx="18" fill="#111827" stroke="#1f2937"/>
  <rect x="140" y="530" width="100" height="34" rx="10" fill="#111827" stroke="#334155"/>
  <text x="190" y="556" fill="#e5e7eb" font-size="18" text-anchor="middle" font-family="ui-sans-serif,system-ui">CAFE</text>
  <rect x="360" y="500" width="320" height="180" rx="18" fill="#0f172a" stroke="#1f2937"/>
  <text x="520" y="604" fill="#67e8f9" font-size="32" text-anchor="middle" font-family="ui-sans-serif,system-ui">STARLIGHT</text>
  <text x="520" y="640" fill="#94a3b8" font-size="14" text-anchor="middle" font-family="ui-sans-serif,system-ui">night market</text>
  <rect x="720" y="540" width="220" height="140" rx="18" fill="#111827" stroke="#1f2937"/>
  <rect x="780" y="560" width="100" height="28" rx="8" fill="#111827" stroke="#334155"/>
  <text x="830" y="580" fill="#fde68a" font-size="14" text-anchor="middle" font-family="ui-sans-serif,system-ui">BOOKS</text>
  <circle cx="180" cy="140" r="6" fill="#f5f3ff"/>
  <circle cx="260" cy="90" r="3" fill="#f5f3ff"/>
  <circle cx="420" cy="120" r="5" fill="#67e8f9"/>
  <circle cx="620" cy="80" r="4" fill="#facc15"/>
  <circle cx="800" cy="110" r="6" fill="#f5f3ff"/>
  <circle cx="950" cy="85" r="3" fill="#67e8f9"/>
  <circle cx="1060" cy="140" r="5" fill="#f5f3ff"/>
  <rect x="0" y="700" width="1200" height="100" fill="#070b14"/>
  <!-- banner_anchors: [190,556], [520,604], [830,580] -->
  <!-- hint: the shop order is 1 -> 2 -> 3; read banner text in that order -->
</svg>
